<svg width="36" height="36" viewBox="0 0 36 36" fill="none" xmlns="http://www.w3.org/2000/svg">
<path d="M35.5741 0.425936C35.0062 -0.141979 34.0855 -0.141979 33.5175 0.425936L0.425936 33.5175C-0.141979 34.0854 -0.141979 35.0061 0.425936 35.574C0.709858 35.8581 1.08209 36 1.45426 36C1.82642 36 2.19859 35.858 2.48258 35.574L35.5741 2.48244C36.142 1.91459 36.142 0.99385 35.5741 0.425936Z" fill="#111111"/>
<path d="M35.5741 33.5174L2.48244 0.425935C1.91459 -0.141978 0.99378 -0.141978 0.425936 0.425935C-0.141979 0.993779 -0.141979 1.91452 0.425936 2.48243L33.5176 35.574C33.8015 35.858 34.1737 36 34.5459 36C34.918 36 35.2903 35.858 35.5741 35.5741C36.1419 35.0061 36.1419 34.0854 35.5741 33.5174Z" fill="#111111"/>
</svg>
