<svg width="120" height="120" viewBox="0 0 120 120" fill="none" xmlns="http://www.w3.org/2000/svg">
<circle cx="60" cy="60" r="60" fill="#F5F5F5"/>
<path d="M37.4688 56.2539C37.2657 56.254 37.0711 56.3347 36.9275 56.4783C36.7839 56.6218 36.7032 56.8165 36.7031 57.0195V60.4102C36.7031 60.6132 36.7838 60.808 36.9274 60.9515C37.071 61.0951 37.2657 61.1758 37.4688 61.1758C37.6718 61.1758 37.8665 61.0951 38.0101 60.9515C38.1537 60.808 38.2344 60.6132 38.2344 60.4102V57.0195C38.2343 56.8165 38.1536 56.6218 38.01 56.4783C37.8664 56.3347 37.6718 56.254 37.4688 56.2539Z" fill="#111111"/>
<path d="M47.0776 59.1689C45.6283 59.1689 44.2115 59.5987 43.0064 60.404C41.8012 61.2092 40.862 62.3537 40.3073 63.6927C39.7527 65.0318 39.6076 66.5052 39.8903 67.9267C40.1731 69.3482 40.871 70.654 41.8959 71.6788C42.9207 72.7037 44.2265 73.4016 45.648 73.6844C47.0695 73.9671 48.543 73.822 49.882 73.2674C51.221 72.7127 52.3655 71.7735 53.1708 70.5684C53.976 69.3633 54.4058 67.9464 54.4058 66.4971C54.4036 64.5542 53.6308 62.6915 52.257 61.3177C50.8832 59.9439 49.0205 59.1711 47.0776 59.1689ZM47.0776 72.2939C45.9311 72.2939 44.8104 71.954 43.8571 71.317C42.9038 70.68 42.1608 69.7747 41.722 68.7154C41.2833 67.6562 41.1685 66.4906 41.3921 65.3662C41.6158 64.2417 42.1679 63.2088 42.9786 62.3981C43.7893 61.5874 44.8222 61.0353 45.9467 60.8116C47.0712 60.5879 48.2368 60.7027 49.296 61.1415C50.3552 61.5802 51.2606 62.3232 51.8976 63.2765C52.5345 64.2298 52.8745 65.3506 52.8745 66.4971C52.8728 68.034 52.2615 69.5074 51.1747 70.5942C50.088 71.6809 48.6145 72.2922 47.0776 72.2939Z" fill="#111111"/>
<path d="M82.5312 70.8281H72.2762L72.3576 70.0371V70.027L73.4076 59.8333C73.4074 59.8308 73.4074 59.8283 73.4076 59.8258L74.2625 51.547C74.2734 51.4405 74.2618 51.3328 74.2285 51.231C74.1952 51.1293 74.141 51.0356 74.0692 50.956C73.9975 50.8765 73.9099 50.8129 73.8121 50.7693C73.7142 50.7258 73.6083 50.7032 73.5013 50.7031H59.5861C59.2001 49.8033 58.5994 49.0118 57.8368 48.3977C57.0741 47.7837 56.1726 47.3659 55.2111 47.1808V43.2656C55.2111 43.1649 55.1912 43.0652 55.1526 42.9723C55.114 42.8793 55.0574 42.7948 54.9861 42.7237C54.9149 42.6526 54.8303 42.5962 54.7372 42.5579C54.6441 42.5195 54.5444 42.4998 54.4438 42.5H49.1544V39.2463H53.4939C53.697 39.2463 53.8917 39.1656 54.0353 39.022C54.1789 38.8784 54.2596 38.6837 54.2596 38.4806C54.2611 37.5705 53.9252 36.692 53.3169 36.0151C52.7085 35.3381 51.8708 34.9106 50.9656 34.8153L44.1074 34.0825C44.0006 34.071 43.8926 34.0822 43.7904 34.1153C43.6882 34.1483 43.5941 34.2025 43.5142 34.2743C43.4343 34.3461 43.3704 34.4339 43.3267 34.532C43.283 34.6301 43.2604 34.7363 43.2604 34.8437V38.4806C43.2605 38.6837 43.3412 38.8783 43.4847 39.0219C43.6283 39.1655 43.823 39.2462 44.026 39.2463H44.9981V42.5H39.7131C39.5101 42.5001 39.3154 42.5808 39.1719 42.7243C39.0283 42.8679 38.9476 43.0626 38.9475 43.2656V47.1812C37.5779 47.4487 36.3436 48.1834 35.4555 49.2598C34.5674 50.3362 34.0805 51.6876 34.0781 53.0831V82.5312C34.0792 83.4301 34.4367 84.292 35.0724 84.9276C35.708 85.5632 36.5698 85.9208 37.4688 85.9218H56.6881C57.3602 85.9225 58.0171 85.7223 58.5746 85.347C58.6165 85.5112 58.7118 85.6567 58.8455 85.7608C58.9792 85.8649 59.1437 85.9216 59.3131 85.9218H85.1562C85.3593 85.9217 85.5539 85.841 85.6975 85.6975C85.8411 85.5539 85.9218 85.3592 85.9219 85.1562V74.2187C85.9208 73.3198 85.5633 72.458 84.9276 71.8223C84.292 71.1867 83.4302 70.8291 82.5312 70.8281ZM84.3906 74.2187V74.3281H68.8594V74.2187C68.86 73.7258 69.056 73.2532 69.4046 72.9046C69.7532 72.556 70.2258 72.3599 70.7188 72.3593H82.5312C83.0242 72.3599 83.4968 72.556 83.8454 72.9046C84.194 73.2532 84.39 73.7258 84.3906 74.2187ZM70.7188 70.8281C69.8198 70.8291 68.958 71.1867 68.3224 71.8223C67.6867 72.458 67.3292 73.3198 67.3281 74.2187V78.6725H60.0039L59.1823 70.7143H70.7485L70.7367 70.8281H70.7188ZM58.1314 60.5206H71.7989L70.9064 69.1831H59.0244L58.8905 67.8872L58.1314 60.5206ZM71.9564 58.9893H57.9717L57.2748 52.2343H72.6525L71.9564 58.9893ZM44.7916 35.6955L50.8029 36.3378C51.1989 36.3796 51.5756 36.5305 51.8909 36.7736C52.2063 37.0168 52.448 37.3427 52.5892 37.715H48.3993H48.3888H48.3783H45.7743H45.7638H45.7533H44.7908L44.7916 35.6955ZM46.5294 39.2463H47.6231V42.5H46.5294V39.2463ZM53.6781 44.0312V47.0675H40.4787V44.0312H53.6781ZM56.6881 84.3906H37.4688C36.9758 84.39 36.5032 84.1939 36.1546 83.8454C35.806 83.4968 35.61 83.0242 35.6094 82.5312V53.0831C35.6106 51.8941 36.0835 50.7543 36.9242 49.9136C37.7649 49.0729 38.9048 48.6 40.0938 48.5987H54.0631C54.8233 48.5974 55.5713 48.7899 56.2364 49.1581C56.9015 49.5264 57.4617 50.0581 57.8641 50.7031H56.4256C56.3184 50.7031 56.2124 50.7256 56.1145 50.7691C56.0165 50.8127 55.9288 50.8763 55.857 50.9559C55.7852 51.0355 55.7309 51.1293 55.6977 51.2312C55.6644 51.3331 55.6529 51.4408 55.6639 51.5475L57.4004 68.3663L57.5714 70.0288V70.0331L58.5475 79.4775V82.5312C58.5469 83.0242 58.3508 83.4968 58.0023 83.8454C57.6537 84.1939 57.1811 84.39 56.6881 84.3906ZM60.0788 82.5312V80.2037H67.3281V84.3906H60.0788V82.5312ZM84.3906 84.3906H68.8594V75.8593H84.3906V84.3906Z" fill="#111111"/>
<path d="M76.6248 76.8799C75.1373 76.8799 73.9268 78.3359 73.9268 80.1248C73.9268 81.9138 75.1373 83.3698 76.6248 83.3698C78.1123 83.3698 79.3229 81.9138 79.3229 80.1248C79.3229 78.3359 78.1123 76.8799 76.6248 76.8799ZM76.6248 81.8385C75.9926 81.8385 75.458 81.0536 75.458 80.1248C75.458 79.196 75.9926 78.4111 76.6248 78.4111C77.257 78.4111 77.7916 79.196 77.7916 80.1248C77.7916 81.0536 77.257 81.8385 76.6248 81.8385Z" fill="#111111"/>
</svg>
