<svg width="120" height="120" viewBox="0 0 120 120" fill="none" xmlns="http://www.w3.org/2000/svg">
<circle cx="60" cy="60" r="60" fill="#F5F5F5"/>
<path d="M73.7273 86.4866H46.2722C45.0224 86.4846 43.8244 85.9873 42.9407 85.1035C42.057 84.2198 41.5596 83.0218 41.5576 81.772V58.3126C41.5561 56.4242 42.2482 54.601 43.5025 53.1893L48.6484 47.4077C48.7193 47.327 48.8066 47.2623 48.9045 47.2179C49.0024 47.1735 49.1086 47.1505 49.216 47.1504H70.6701C70.7757 47.1506 70.88 47.173 70.9765 47.216C71.0729 47.259 71.1593 47.3217 71.2301 47.4001L76.4441 53.1893C77.7292 54.6071 78.4413 56.452 78.4419 58.3655V81.825C78.426 83.0655 77.9226 84.25 77.0403 85.1223C76.1581 85.9946 74.968 86.4847 73.7273 86.4866ZM49.5111 48.6488L44.6301 54.1731C43.6242 55.3084 43.0695 56.7731 43.0711 58.2899V81.7493C43.0681 82.1716 43.1487 82.5903 43.3083 82.9813C43.4678 83.3723 43.7031 83.7278 44.0006 84.0275C44.2982 84.3272 44.6521 84.565 45.0419 84.7273C45.4318 84.8896 45.8499 84.9731 46.2722 84.9731H73.7273C74.5757 84.9711 75.3888 84.6332 75.9886 84.0333C76.5885 83.4334 76.9264 82.6204 76.9284 81.772V58.3126C76.9309 56.7737 76.3588 55.2894 75.3241 54.1504L70.3371 48.6488H49.5111Z" fill="#111111"/>
<path d="M70.6779 48.6487C70.4771 48.6487 70.2847 48.569 70.1427 48.4271C70.0008 48.2852 69.9211 48.0927 69.9211 47.892V43.5936H49.9427V47.892C49.9427 48.0927 49.863 48.2852 49.7211 48.4271C49.5791 48.569 49.3867 48.6487 49.186 48.6487C48.9853 48.6487 48.7928 48.569 48.6508 48.4271C48.5089 48.2852 48.4292 48.0927 48.4292 47.892V42.8368C48.4292 42.6361 48.5089 42.4436 48.6508 42.3017C48.7928 42.1598 48.9853 42.0801 49.186 42.0801H70.6779C70.8786 42.0801 71.071 42.1598 71.213 42.3017C71.3549 42.4436 71.4346 42.6361 71.4346 42.8368V47.892C71.4346 48.0927 71.3549 48.2852 71.213 48.4271C71.071 48.569 70.8786 48.6487 70.6779 48.6487Z" fill="#111111"/>
<path d="M72.1688 43.5937H47.6953C47.0711 43.5937 46.4725 43.3457 46.0311 42.9043C45.5898 42.463 45.3418 41.8643 45.3418 41.2402V35.8672C45.3418 35.243 45.5898 34.6444 46.0311 34.203C46.4725 33.7616 47.0711 33.5137 47.6953 33.5137H72.1688C72.7924 33.5157 73.3899 33.7643 73.8308 34.2052C74.2717 34.6461 74.5203 35.2436 74.5223 35.8672V41.2402C74.5203 41.8637 74.2717 42.4612 73.8308 42.9021C73.3899 43.3431 72.7924 43.5917 72.1688 43.5937ZM47.6953 35.0272C47.4725 35.0272 47.2589 35.1157 47.1013 35.2732C46.9438 35.4307 46.8553 35.6444 46.8553 35.8672V41.2402C46.8553 41.4629 46.9438 41.6766 47.1013 41.8341C47.2589 41.9917 47.4725 42.0802 47.6953 42.0802H72.1688C72.3916 42.0802 72.6053 41.9917 72.7628 41.8341C72.9203 41.6766 73.0088 41.4629 73.0088 41.2402V35.8672C73.0088 35.6444 72.9203 35.4307 72.7628 35.2732C72.6053 35.1157 72.3916 35.0272 72.1688 35.0272H47.6953Z" fill="#111111"/>
<path d="M77.6852 59.6444H42.3144C42.1137 59.6444 41.9212 59.5646 41.7793 59.4227C41.6373 59.2808 41.5576 59.0883 41.5576 58.8876C41.5576 58.6869 41.6373 58.4944 41.7793 58.3525C41.9212 58.2106 42.1137 58.1309 42.3144 58.1309H77.6852C77.8859 58.1309 78.0784 58.2106 78.2203 58.3525C78.3622 58.4944 78.4419 58.6869 78.4419 58.8876C78.4419 59.0883 78.3622 59.2808 78.2203 59.4227C78.0784 59.5646 77.8859 59.6444 77.6852 59.6444Z" fill="#111111"/>
<path d="M77.6852 79.5018H42.3144C42.1137 79.5018 41.9212 79.4221 41.7793 79.2801C41.6373 79.1382 41.5576 78.9457 41.5576 78.745C41.5576 78.5443 41.6373 78.3518 41.7793 78.2099C41.9212 78.068 42.1137 77.9883 42.3144 77.9883H77.6852C77.8859 77.9883 78.0784 78.068 78.2203 78.2099C78.3622 78.3518 78.4419 78.5443 78.4419 78.745C78.4419 78.9457 78.3622 79.1382 78.2203 79.2801C78.0784 79.4221 77.8859 79.5018 77.6852 79.5018Z" fill="#111111"/>
<path d="M59.9999 74.6957C59.7992 74.6957 59.6067 74.616 59.4648 74.4741C59.3229 74.3322 59.2432 74.1397 59.2432 73.939V65.2968C59.2432 65.0961 59.3229 64.9036 59.4648 64.7617C59.6067 64.6198 59.7992 64.54 59.9999 64.54C60.2006 64.54 60.3931 64.6198 60.535 64.7617C60.677 64.9036 60.7567 65.0961 60.7567 65.2968V73.939C60.7567 74.1397 60.677 74.3322 60.535 74.4741C60.3931 74.616 60.2006 74.6957 59.9999 74.6957Z" fill="#111111"/>
<path d="M64.3286 70.368H55.6713C55.4706 70.368 55.2781 70.2883 55.1362 70.1464C54.9943 70.0044 54.9146 69.812 54.9146 69.6112C54.9146 69.4105 54.9943 69.2181 55.1362 69.0761C55.2781 68.9342 55.4706 68.8545 55.6713 68.8545H64.3286C64.5293 68.8545 64.7218 68.9342 64.8637 69.0761C65.0056 69.2181 65.0854 69.4105 65.0854 69.6112C65.0854 69.812 65.0056 70.0044 64.8637 70.1464C64.7218 70.2883 64.5293 70.368 64.3286 70.368Z" fill="#111111"/>
</svg>
