<svg width="120" height="120" viewBox="0 0 120 120" fill="none" xmlns="http://www.w3.org/2000/svg">
<circle cx="60" cy="60" r="60" fill="#F5F5F5"/>
<path d="M37.25 59.75H41.901C41.7266 60.235 41.7 60.7609 41.8245 61.2611C41.9489 61.7612 42.2189 62.2133 42.6002 62.5601L49.7837 69.1444L49.7844 69.1438C49.7904 69.1493 49.7953 69.1554 49.802 69.1606L61.1543 79H60.875C60.6429 79 60.4204 79.0922 60.2563 79.2563C60.0922 79.4204 60 79.6429 60 79.875V83.375C60 83.6071 60.0922 83.8296 60.2563 83.9937C60.4204 84.1578 60.6429 84.25 60.875 84.25H71.375C71.6071 84.25 71.8296 84.1578 71.9937 83.9937C72.1578 83.8296 72.25 83.6071 72.25 83.375V79.875C72.25 79.6429 72.1578 79.4204 71.9937 79.2563C71.8296 79.0922 71.6071 79 71.375 79V77.6124L71.8436 77.1438C72.2511 76.7385 72.5742 76.2564 72.7942 75.7254C73.0141 75.1944 73.1266 74.625 73.125 74.0502V68.6895L76.2969 61.7114C76.5791 61.0935 76.6096 60.39 76.3818 59.75H82.75C83.4459 59.7492 84.1132 59.4724 84.6053 58.9803C85.0974 58.4882 85.3742 57.8209 85.375 57.125V55.375C85.375 55.1429 85.2828 54.9204 85.1187 54.7563C84.9546 54.5922 84.7321 54.5 84.5 54.5H81V53.625C81 43.4929 72.7571 35.25 62.625 35.25V33.5H63.5C63.7321 33.5 63.9546 33.4078 64.1187 33.2437C64.2828 33.0796 64.375 32.8571 64.375 32.625C64.375 32.3929 64.2828 32.1704 64.1187 32.0063C63.9546 31.8422 63.7321 31.75 63.5 31.75H56.5C56.2679 31.75 56.0454 31.8422 55.8813 32.0063C55.7172 32.1704 55.625 32.3929 55.625 32.625C55.625 32.8571 55.7172 33.0796 55.8813 33.2437C56.0454 33.4078 56.2679 33.5 56.5 33.5H57.375V35.25C47.2429 35.25 39 43.4929 39 53.625V54.5H35.5C35.2679 54.5 35.0454 54.5922 34.8813 54.7563C34.7172 54.9204 34.625 55.1429 34.625 55.375V57.125C34.6258 57.8209 34.9026 58.4882 35.3947 58.9803C35.8868 59.4724 36.5541 59.7492 37.25 59.75ZM43.5584 60.3078C43.62 60.1419 43.7315 59.9992 43.8775 59.8993C44.0236 59.7994 44.197 59.7472 44.3739 59.75H44.8734C45.0414 59.7502 45.2057 59.7987 45.347 59.8896C45.4882 59.9805 45.6003 60.1101 45.67 60.2629L46.3278 61.7099V61.7112L47.8022 64.9547L43.7826 61.2703C43.6503 61.1528 43.5577 60.9971 43.5175 60.8247C43.4774 60.6523 43.4917 60.4717 43.5584 60.3078ZM70.5 82.5H61.75V80.75H70.5V82.5ZM74.6429 60.1513C74.7235 60.2739 74.7714 60.415 74.782 60.5612C74.7927 60.7075 74.7658 60.8541 74.7038 60.987L71.4534 68.1379C71.4018 68.2516 71.375 68.3751 71.375 68.5V74.0502C71.3759 74.3951 71.3085 74.7367 71.1765 75.0553C71.0445 75.3739 70.8507 75.6632 70.6062 75.9064L69.8813 76.6313C69.8 76.7125 69.7356 76.809 69.6916 76.9151C69.6476 77.0213 69.625 77.1351 69.625 77.25V79H63.8264L51.0925 67.9641L47.9206 60.9871C47.86 60.8538 47.8338 60.7074 47.8445 60.5613C47.8551 60.4153 47.9023 60.2742 47.9816 60.1511C48.061 60.028 48.1699 59.9267 48.2985 59.8566C48.4271 59.7866 48.5713 59.7499 48.7178 59.75H49.2934C49.456 59.7494 49.6155 59.7944 49.7539 59.8799C49.8922 59.9654 50.0038 60.088 50.0761 60.2337L53.0924 66.2663C53.1883 66.458 53.3511 66.6078 53.55 66.6874L62.3 70.1874C62.4708 70.2557 62.6588 70.2685 62.8372 70.2239L66.3372 69.3489C66.4545 69.3195 66.5645 69.2662 66.6602 69.1922C66.7559 69.1182 66.8352 69.0252 66.8931 68.919L71.6457 60.206C71.721 60.068 71.8321 59.9528 71.9673 59.8725C72.1025 59.7923 72.2568 59.75 72.4141 59.75H73.9075C74.0541 59.7487 74.1986 59.7848 74.3274 59.8551C74.4561 59.9253 74.5647 60.0273 74.6429 60.1513ZM51.7908 59.75H69.9011L65.5406 67.7442L62.6872 68.4575L54.5094 65.1859L51.7908 59.75ZM59.125 33.5H60.875V35.25H59.125V33.5ZM40.75 53.625C40.75 44.458 48.208 37 57.375 37H62.625C71.792 37 79.25 44.458 79.25 53.625V54.5H40.75V53.625ZM36.375 56.25H83.625V57.125C83.6247 57.357 83.5325 57.5794 83.3684 57.7434C83.2044 57.9075 82.982 57.9997 82.75 58H37.25C37.018 57.9997 36.7956 57.9075 36.6316 57.7434C36.4675 57.5794 36.3753 57.357 36.375 57.125V56.25Z" fill="#111111"/>
</svg>
