<svg width="120" height="120" viewBox="0 0 120 120" fill="none" xmlns="http://www.w3.org/2000/svg">
<circle cx="60" cy="60" r="60" fill="#F5F5F5"/>
<g clip-path="url(#clip0)">
<path d="M45.429 88H69.7584C70.6736 88 71.4183 87.2554 71.4183 86.34V84.5827C71.4183 83.7929 70.8633 83.1313 70.1231 82.9645V70.3985C70.1231 69.9455 69.756 69.5782 69.3028 69.5782C68.8497 69.5782 68.4825 69.9455 68.4825 70.3985V75.6002H46.7049V61.3688H55.6797C56.1328 61.3688 56.5 61.0016 56.5 60.5485C56.5 60.0955 56.1328 59.7282 55.6797 59.7282H46.7049V54.0461H68.4825V59.7282H59.5078C59.0547 59.7282 58.6875 60.0955 58.6875 60.5485C58.6875 61.0016 59.0547 61.3688 59.5078 61.3688H68.4826V66.5705C68.4826 67.0235 68.8498 67.3908 69.3029 67.3908C69.7561 67.3908 70.1233 67.0235 70.1233 66.5705V54.0045C70.8634 53.8377 71.4184 53.1761 71.4184 52.3863V50.6288C71.4184 49.7219 70.687 48.9835 69.7831 48.9701C68.7113 45.0164 65.2247 42.1508 61.1341 41.861C61.1341 38.8024 61.1341 40.433 61.1341 38.5359H61.1648C61.6179 38.5359 61.9851 38.1687 61.9851 37.7156C61.9851 37.2626 61.6179 36.8953 61.1648 36.8953H61.1341C61.1341 35.882 61.1341 35.1791 61.1341 34.1494C61.134 32.9643 60.1698 32 58.9846 32H56.2026C55.0174 32 54.0533 32.9643 54.0533 34.1494V41.861C49.9628 42.1507 46.476 45.0164 45.4043 48.9701C44.5005 48.9835 43.769 49.7219 43.769 50.6288V52.3862C43.769 53.176 44.324 53.8376 45.0643 54.0044V82.9644C44.3241 83.1312 43.769 83.7928 43.769 84.5826V86.3399C43.769 87.2554 44.5138 88 45.429 88ZM69.7776 86.34C69.7776 86.3507 69.769 86.3594 69.7584 86.3594H45.429C45.4183 86.3594 45.4097 86.3507 45.4097 86.34V84.5827C45.4097 84.5721 45.4183 84.5634 45.429 84.5634H69.7584C69.769 84.5634 69.7776 84.5721 69.7776 84.5827V86.34ZM68.4825 77.2408V82.9228H46.7049V77.2408H68.4825ZM45.429 52.4055C45.4183 52.4055 45.4097 52.3969 45.4097 52.3863V50.6288C45.4097 50.6182 45.4183 50.6096 45.429 50.6096H69.7584C69.769 50.6096 69.7776 50.6182 69.7776 50.6288V52.3862C69.7776 52.3968 69.769 52.4054 69.7584 52.4054C69.2725 52.4055 47.2926 52.4055 45.429 52.4055ZM59.4934 36.9029C59.0902 36.9547 58.7785 37.2984 58.7785 37.7156C58.7785 38.1329 59.0902 38.4766 59.4934 38.5284V38.9434H58.9686C58.668 38.9434 58.4141 38.6894 58.4141 38.3887V37.0425C58.4141 36.7419 58.668 36.4879 58.9686 36.4879H59.4934V36.9029ZM55.6939 34.1494C55.6939 33.8689 55.9222 33.6406 56.2026 33.6406H58.9846C59.265 33.6406 59.4933 33.8689 59.4933 34.1494V34.8473H58.9685C57.7582 34.8473 56.7733 35.8321 56.7733 37.0425V38.3888C56.7733 39.5993 57.7582 40.5841 58.9685 40.5841H59.4933V41.8346H55.6939V34.1494ZM54.8736 43.4752H60.3136C64.093 43.4752 67.0319 45.8408 68.072 48.9689H47.1153C48.148 45.8632 51.0705 43.4752 54.8736 43.4752Z" fill="#111111"/>
<path d="M64.1694 38.5576H65.7352C66.1884 38.5576 66.5556 38.1903 66.5556 37.7373C66.5556 37.2843 66.1884 36.917 65.7352 36.917H64.1694C63.7163 36.917 63.3491 37.2843 63.3491 37.7373C63.3491 38.1903 63.7163 38.5576 64.1694 38.5576Z" fill="#111111"/>
<path d="M70.5731 36.917H69.0073C68.5542 36.917 68.187 37.2843 68.187 37.7373C68.187 38.1903 68.5542 38.5576 69.0073 38.5576H70.5731C71.0263 38.5576 71.3935 38.1903 71.3935 37.7373C71.3935 37.2843 71.0262 36.917 70.5731 36.917Z" fill="#111111"/>
<path d="M75.4106 36.917H73.8447C73.3916 36.917 73.0244 37.2843 73.0244 37.7373C73.0244 38.1903 73.3916 38.5576 73.8447 38.5576H75.4106C75.8638 38.5576 76.231 38.1903 76.231 37.7373C76.231 37.2843 75.8638 36.917 75.4106 36.917Z" fill="#111111"/>
<path d="M64.3123 35.7882L65.8541 35.5148C66.3002 35.4357 66.5978 35.0099 66.5186 34.5639C66.4394 34.1179 66.0143 33.8204 65.5677 33.8995L64.0258 34.1729C63.5798 34.252 63.2822 34.6778 63.3614 35.1238C63.4404 35.5696 63.8658 35.8674 64.3123 35.7882Z" fill="#111111"/>
<path d="M69.076 34.9435L70.6178 34.6701C71.0639 34.591 71.3615 34.1652 71.2823 33.7191C71.2032 33.2731 70.7775 32.9757 70.3314 33.0547L68.7895 33.3281C68.3435 33.4072 68.0459 33.833 68.1251 34.279C68.2041 34.7254 68.6303 35.0227 69.076 34.9435Z" fill="#111111"/>
<path d="M73.8392 34.0988L75.381 33.8253C75.827 33.7463 76.1246 33.3205 76.0455 32.8744C75.9664 32.4283 75.5412 32.131 75.0946 32.21L73.5527 32.4834C73.1067 32.5625 72.8091 32.9883 72.8882 33.4343C72.9672 33.8801 73.3927 34.178 73.8392 34.0988Z" fill="#111111"/>
<path d="M65.8541 39.9599L64.3123 39.6865C63.8657 39.6076 63.4405 39.905 63.3614 40.351C63.2822 40.7971 63.5798 41.2228 64.0258 41.3019L65.5677 41.5753C66.0143 41.6545 66.4396 41.3564 66.5186 40.9108C66.5978 40.4647 66.3002 40.039 65.8541 39.9599Z" fill="#111111"/>
<path d="M68.7895 42.1466L70.3314 42.4201C70.7779 42.4992 71.2033 42.2012 71.2823 41.7556C71.3615 41.3095 71.0639 40.8838 70.6178 40.8047L69.076 40.5313C68.6299 40.4523 68.204 40.7498 68.1251 41.1957C68.0459 41.6418 68.3435 42.0675 68.7895 42.1466Z" fill="#111111"/>
<path d="M73.5527 42.9913L75.0946 43.2648C75.5411 43.344 75.9665 43.0459 76.0455 42.6003C76.1246 42.1542 75.827 41.7285 75.381 41.6494L73.8392 41.376C73.3927 41.297 72.9673 41.5945 72.8882 42.0404C72.8091 42.4865 73.1067 42.9123 73.5527 42.9913Z" fill="#111111"/>
</g>
<defs>
<clipPath id="clip0">
<rect width="56" height="56" fill="white" transform="translate(32 32)"/>
</clipPath>
</defs>
</svg>
