<svg width="49" height="49" viewBox="0 0 49 49" fill="none" xmlns="http://www.w3.org/2000/svg">
<g clip-path="url(#clip0)">
<g clip-path="url(#clip1)">
<path d="M46.5321 16.8803L25.6754 1.60949C25.2732 1.31507 24.7269 1.31507 24.3248 1.60949L3.46798 16.8803C2.95854 17.2534 2.84785 17.9687 3.22091 18.4782C3.59396 18.9876 4.30939 19.0981 4.81874 18.7252L25 3.94879L45.1814 18.7251C45.3849 18.8742 45.6214 18.946 45.8558 18.946C46.2078 18.946 46.5552 18.784 46.7791 18.4781C47.1522 17.9687 47.0416 17.2534 46.5321 16.8803Z" fill="white"/>
<path d="M41.0057 18.9844C40.3744 18.9844 39.8625 19.4962 39.8625 20.1276V38.3248H30.7169V28.3916C30.7169 25.2394 28.1523 22.675 25.0003 22.675C21.8483 22.675 19.2837 25.2396 19.2837 28.3916V38.3249H10.138V20.1277C10.138 19.4963 9.62609 18.9845 8.99479 18.9845C8.36349 18.9845 7.85156 19.4963 7.85156 20.1277V39.4682C7.85156 40.0996 8.36349 40.6114 8.99479 40.6114H20.427C21.0282 40.6114 21.5202 40.1469 21.5657 39.5572C21.5685 39.5305 21.5702 39.5013 21.5702 39.4682V28.3917C21.5702 26.5003 23.1089 24.9616 25.0003 24.9616C26.8917 24.9616 28.4304 26.5004 28.4304 28.3917V39.4682C28.4304 39.5011 28.4321 39.5298 28.4349 39.5562C28.4799 40.1463 28.9721 40.6114 29.5736 40.6114H41.0058C41.6372 40.6114 42.149 40.0996 42.149 39.4682V20.1277C42.149 19.4962 41.6371 18.9844 41.0057 18.9844Z" fill="white"/>
</g>
<circle opacity="0.35" cx="34" cy="36" r="13" fill="white"/>
<g clip-path="url(#clip2)">
<path d="M43.5137 48.3285L40.095 44.9105L38.4379 46.5676C38.2948 46.7106 38.0871 46.7696 37.8891 46.7238C37.6912 46.6769 37.5321 46.5315 37.468 46.3387L34.1532 36.3949C34.0829 36.1843 34.1378 35.952 34.2946 35.7952C34.4508 35.639 34.6837 35.5818 34.8943 35.6539L44.838 38.9687C45.0309 39.0328 45.1762 39.1918 45.2231 39.3898C45.2695 39.5872 45.2105 39.7949 45.0669 39.9385L43.4098 41.5957L46.8279 45.0143C47.0568 45.2432 47.0568 45.614 46.8279 45.8428L44.3422 48.3285C44.1133 48.5574 43.7425 48.5574 43.5137 48.3285Z" fill="white"/>
<path d="M34.6172 33.1875C34.2933 33.1875 34.0312 32.9254 34.0312 32.6016V29.0859C34.0312 28.7621 34.2933 28.5 34.6172 28.5C34.9411 28.5 35.2031 28.7621 35.2031 29.0859V32.6016C35.2031 32.9254 34.9411 33.1875 34.6172 33.1875Z" fill="white"/>
<path d="M31.7175 34.0451L29.2312 31.5588C29.0024 31.3299 29.0024 30.9591 29.2312 30.7302C29.4601 30.5014 29.8309 30.5014 30.0598 30.7302L32.546 33.2165C32.7749 33.4453 32.7749 33.8162 32.546 34.045C32.3171 34.2739 31.9463 34.2739 31.7175 34.0451Z" fill="white"/>
<path d="M29.2312 41.504C29.0024 41.2751 29.0024 40.9043 29.2312 40.6754L31.7174 38.1892C31.9463 37.9604 32.3171 37.9604 32.546 38.1892C32.7749 38.4181 32.7749 38.7889 32.546 39.0178L30.0598 41.504C29.8309 41.7329 29.4601 41.7329 29.2312 41.504Z" fill="white"/>
<path d="M36.6883 34.045C36.4594 33.8161 36.4594 33.4453 36.6883 33.2164L39.1745 30.7302C39.4033 30.5014 39.7742 30.5014 40.003 30.7302C40.2319 30.9591 40.2319 31.3299 40.003 31.5588L37.5168 34.045C37.2879 34.2739 36.9172 34.2739 36.6883 34.045Z" fill="white"/>
<path d="M31.1016 36.7031H27.5859C27.2621 36.7031 27 36.4411 27 36.1172C27 35.7933 27.2621 35.5312 27.5859 35.5312H31.1016C31.4254 35.5312 31.6875 35.7933 31.6875 36.1172C31.6875 36.4411 31.4254 36.7031 31.1016 36.7031Z" fill="white"/>
</g>
</g>
<defs>
<clipPath id="clip0">
<rect width="49" height="49" fill="white"/>
</clipPath>
<clipPath id="clip1">
<rect width="44" height="44" fill="white" transform="translate(3 -1)"/>
</clipPath>
<clipPath id="clip2">
<rect width="20" height="20" fill="white" transform="translate(27 28.5)"/>
</clipPath>
</defs>
</svg>
