<svg width="50" height="50" viewBox="0 0 50 50" fill="none" xmlns="http://www.w3.org/2000/svg">
<g clip-path="url(#clip0)">
<path d="M50.0001 45.1233C50.0004 45.0541 49.9917 44.9832 49.9727 44.9166L48.7073 40.4769C48.4477 39.5662 47.0389 39.9676 47.2984 40.8784L48.0563 43.5371L36.9628 36.8748L36.9618 24.2172C36.9618 23.9503 36.8094 23.6956 36.5732 23.5706L25.7316 17.8058V5.81989L27.5994 7.83594C28.2487 8.53638 29.314 7.53123 28.6741 6.84027L25.5364 3.45371C25.2543 3.14949 24.7439 3.14959 24.4618 3.45371L21.3242 6.84027C20.6806 7.53523 21.7548 8.53022 22.3988 7.83594L24.2666 5.81989V17.8058L13.425 23.5706C13.1884 23.6933 13.0364 23.9521 13.0364 24.2173V36.8741L1.94191 43.537L2.69978 40.8783C2.95927 39.9674 1.55048 39.5662 1.29089 40.4768L0.0254774 44.9165C-0.0881043 45.3162 0.18916 45.7882 0.636748 45.8459L5.10677 46.7584C6.00517 46.9422 6.31291 45.5096 5.39976 45.3231L2.72341 44.7768L13.7575 38.1501L24.6553 43.9447C24.8676 44.0575 25.131 44.0576 25.3432 43.9447L28.0079 42.5277C28.8441 42.0831 28.1563 40.7897 27.3201 41.2342L25.7317 42.0788V30.629L35.497 25.4364L35.4979 36.8636L31.3614 39.0854C30.5449 39.524 31.2379 40.8147 32.0547 40.376L36.2211 38.1381L47.2751 44.7767L44.5987 45.323C43.6841 45.5098 44.006 46.9396 44.8917 46.7583L49.3626 45.8457C49.7181 45.7995 49.9977 45.4652 50.0001 45.1233ZM24.9992 29.3592L20.5686 27.0033C19.7323 26.5588 19.0446 27.8522 19.8808 28.2968L24.2667 30.629V42.0789L14.5015 36.8865V25.4365L16.4285 26.4612C17.2648 26.906 17.9525 25.6123 17.1164 25.1678L15.3291 24.2175L24.9992 19.0757L34.6693 24.2175L24.9992 29.3592Z" fill="black"/>
</g>
<defs>
<clipPath id="clip0">
<rect width="50" height="50" fill="white"/>
</clipPath>
</defs>
</svg>
