<svg width="120" height="120" viewBox="0 0 120 120" fill="none" xmlns="http://www.w3.org/2000/svg">
<circle cx="60" cy="60" r="60" fill="#F5F5F5"/>
<g clip-path="url(#clip0)">
<path d="M50.4556 74.7547C50.6652 74.7547 50.8749 74.6747 51.0349 74.5147C51.3549 74.1948 51.3549 73.676 51.0349 73.356L46.6437 68.9646C46.3238 68.6447 45.8051 68.6446 45.4848 68.9646C45.1649 69.2845 45.1649 69.8033 45.4848 70.1234L49.8761 74.5147C50.0362 74.6747 50.2458 74.7547 50.4556 74.7547Z" fill="#111111"/>
<path d="M87.4565 43.0945L76.9068 32.5448C76.5506 32.1887 76.079 31.9991 75.5737 32.001C75.0703 32.0063 74.6013 32.2095 74.2529 32.5728L45.426 62.5967C45.1116 62.9222 45.1207 63.4409 45.4463 63.7552C45.7717 64.0695 46.2905 64.0603 46.6049 63.7349L49.2028 61.0439C49.7038 63.4277 50.8881 65.6298 52.6297 67.3714C54.3716 69.1132 56.5736 70.2975 58.9574 70.7984L50.7611 78.7114C50.3562 79.1021 49.8538 79.3802 49.3077 79.5152L43.0783 81.0565L38.9448 76.9231L40.4861 70.6936C40.6213 70.1473 40.8992 69.6449 41.2899 69.2403L43.9456 66.4894C44.2599 66.1639 44.2509 65.6451 43.9253 65.3308C43.5996 65.0165 43.0811 65.0257 42.7667 65.3512L40.111 68.1019C39.5202 68.7139 39.0998 69.4739 38.8955 70.3L37.2977 76.7571L32.504 81.5508C31.9416 82.1133 31.8388 82.9785 32.254 83.6547C32.7397 84.4457 33.3188 85.1787 33.9692 85.8408C34.6842 86.5687 35.475 87.212 36.3464 87.7472C36.6239 87.9176 36.9332 88.0009 37.2402 88.0009C37.6817 88.0009 38.1188 87.8289 38.4505 87.4972L43.2441 82.7036L49.7014 81.1061C50.5272 80.9017 51.2873 80.4814 51.8993 79.8905C51.8993 79.8905 87.4286 45.7485 87.4286 45.7484C87.7921 45.4 87.9952 44.9307 88.0004 44.4272C88.0057 43.9237 87.8124 43.4504 87.4565 43.0945ZM37.2915 86.3385C37.2677 86.3624 37.2308 86.3673 37.204 86.3509C37.1012 86.2878 36.9893 86.2153 36.8713 86.1355C35.6816 85.3308 34.6703 84.3195 33.8657 83.1297C33.7859 83.0119 33.7135 82.9001 33.6505 82.7973C33.6505 82.7973 33.6505 82.7973 33.6504 82.7973C33.6339 82.7703 33.6392 82.7333 33.6629 82.7096L38.0382 78.3342L41.667 81.963L37.2915 86.3385ZM73.9935 56.2852C73.8489 55.4469 73.6218 54.6251 73.3098 53.8293C73.1447 53.408 72.6693 53.2003 72.248 53.3655C71.8266 53.5307 71.619 54.0061 71.7842 54.4274C72.1961 55.4781 72.442 56.58 72.5167 57.7077L60.4338 69.3725C57.9265 69.1163 55.5785 68.0025 53.7886 66.2126C51.9987 64.4229 50.8849 62.0748 50.6287 59.5674L62.2935 47.4845C64.9493 47.6607 67.4342 48.7861 69.3247 50.6765C69.5596 50.9114 69.7861 51.159 69.9979 51.4126C70.288 51.76 70.8047 51.8064 71.1521 51.5163C71.4994 51.2264 71.5459 50.7096 71.2558 50.3623C71.0126 50.0711 70.7527 49.7869 70.4835 49.5176C68.6261 47.6603 66.2692 46.4462 63.7173 46.0062L72.1424 37.1665L82.8346 47.8587L73.9935 56.2852ZM86.2944 44.5655L84.0211 46.7279L73.2733 35.9801L75.4359 33.7068C75.4883 33.6521 75.5494 33.64 75.5911 33.6395C75.6301 33.6382 75.6943 33.6498 75.748 33.7035L76.774 34.7295L75.9512 35.5523C75.6313 35.8724 75.6313 36.391 75.9513 36.7111C76.1112 36.8711 76.321 36.9511 76.5306 36.9511C76.7403 36.9511 76.95 36.871 77.11 36.7111L77.9327 35.8883L79.2202 37.1758L78.3975 37.9987C78.0775 38.3187 78.0775 38.8374 78.3976 39.1575C78.5575 39.3175 78.7673 39.3974 78.9769 39.3974C79.1865 39.3974 79.3962 39.3175 79.5562 39.1575L80.379 38.3347L81.6666 39.6223L80.8438 40.4452C80.5237 40.7651 80.5237 41.2839 80.8436 41.6039C81.0037 41.764 81.2133 41.8439 81.423 41.8439C81.6327 41.8439 81.8424 41.7639 82.0023 41.6039L82.8253 40.7811L84.1129 42.0687L83.29 42.8916C82.97 43.2115 82.97 43.7303 83.2899 44.0503C83.4499 44.2103 83.6596 44.2903 83.8693 44.2903C84.079 44.2903 84.2887 44.2103 84.4486 44.0503L85.2715 43.2275L86.2975 44.2534C86.3512 44.307 86.3619 44.3683 86.3615 44.4102C86.3613 44.4519 86.3492 44.5129 86.2944 44.5655Z" fill="#111111"/>
</g>
<defs>
<clipPath id="clip0">
<rect width="56" height="56" fill="white" transform="translate(32 32)"/>
</clipPath>
</defs>
</svg>
