<svg width="50" height="50" viewBox="0 0 50 50" fill="none" xmlns="http://www.w3.org/2000/svg">
<g clip-path="url(#clip0)">
<path d="M4.16455 0H33.6138C35.9102 0 37.7783 1.86816 37.7783 4.16455V27.3516H42.0322C42.4367 27.3516 42.7646 27.6795 42.7646 28.084C42.7646 28.4885 42.4367 28.8164 42.0322 28.8164H37.7783V33.6138C37.7783 35.9102 35.9102 37.7783 33.6138 37.7783H28.8164V45.8359C28.8164 47.3243 30.0277 48.5352 31.5166 48.5352H45.8359C47.3243 48.5352 48.5352 47.3243 48.5352 45.8359V31.5166C48.5352 30.0277 47.3243 28.8164 45.8359 28.8164H44.9619C44.5574 28.8164 44.2295 28.4885 44.2295 28.084C44.2295 27.6795 44.5574 27.3516 44.9619 27.3516H45.8359C48.132 27.3516 50 29.22 50 31.5166V45.8359C50 48.132 48.132 50 45.8359 50H31.5166C29.22 50 27.3516 48.132 27.3516 45.8359V37.7783H4.16446C1.86807 37.7783 -9.53674e-05 35.9102 -9.53674e-05 33.6138V4.16455C3.8147e-06 1.86816 1.86816 0 4.16455 0V0ZM33.6138 36.3135C35.1024 36.3135 36.3135 35.1024 36.3135 33.6138V28.8164H31.5166C30.0277 28.8164 28.8164 30.0277 28.8164 31.5166V36.3135H33.6138ZM1.46484 33.6138C1.46484 35.1024 2.67588 36.3135 4.16455 36.3135H27.3516V31.5166C27.3516 29.22 29.22 27.3516 31.5166 27.3516H36.3135V4.16455C36.3135 2.67588 35.1024 1.46484 33.6138 1.46484H4.16446C2.67588 1.46484 1.46484 2.67588 1.46484 4.16455V33.6138Z" fill="black"/>
<path d="M7.68735 3.9316L10.3983 4.65816C10.789 4.76285 11.0209 5.16451 10.9162 5.55523C10.8116 5.94595 10.4099 6.17779 10.0191 6.0731L7.30845 5.34664C6.9021 5.23785 6.48198 5.35064 6.18501 5.648C5.88823 5.94498 5.77603 6.36421 5.88482 6.76988L8.01001 14.7028C8.11851 15.1085 8.42534 15.4156 8.83071 15.5244C9.23657 15.6336 9.65699 15.521 9.95445 15.2237L11.3168 13.8614C11.6029 13.5753 12.0666 13.5753 12.3526 13.8614L17.4356 18.9444C17.7085 19.2172 18.0717 19.3675 18.4587 19.3675C18.8456 19.3675 19.2089 19.2172 19.4815 18.9447C20.0452 18.3804 20.0452 17.4622 19.4818 16.8981L14.3988 11.8151C14.1127 11.5291 14.1127 11.0654 14.3988 10.7794L15.7621 9.41607C16.0591 9.119 16.1715 8.69947 16.0629 8.29371C15.9543 7.88775 15.6467 7.58043 15.2408 7.47154L12.8462 6.82994C12.4555 6.72525 12.2237 6.32359 12.3284 5.93287C12.433 5.54214 12.8345 5.31021 13.2254 5.415L15.6201 6.0566C16.5377 6.30269 17.2322 6.99732 17.4779 7.9147C17.7236 8.83189 17.4693 9.78033 16.7979 10.4518L15.9525 11.2972L20.5179 15.8627C21.6516 16.9978 21.6516 18.8448 20.5176 19.9802C19.9681 20.5297 19.237 20.8325 18.4587 20.8325C17.6804 20.8325 16.9493 20.5298 16.3998 19.9802L11.8347 15.4151L10.9901 16.2597C10.3177 16.9315 9.3688 17.1853 8.45093 16.9391C7.53403 16.6929 6.84028 15.9985 6.59507 15.0816L4.46997 7.14918C4.22397 6.23238 4.47778 5.28414 5.14878 4.61255C5.82026 3.94058 6.76929 3.68589 7.68735 3.9316Z" fill="black"/>
</g>
<defs>
<clipPath id="clip0">
<rect width="50" height="50" fill="white" transform="matrix(-1 0 0 1 50 0)"/>
</clipPath>
</defs>
</svg>
