<svg width="49" height="53" viewBox="0 0 49 53" fill="none" xmlns="http://www.w3.org/2000/svg">
<circle opacity="0.35" cx="20" cy="13" r="13" fill="white"/>
<g clip-path="url(#clip0)">
<path d="M38.1477 27.2875C38.1277 27.287 38.1076 27.2865 38.0876 27.2863C37.2056 27.2946 36.3559 27.6261 35.6944 28.2201C35.2114 26.5966 33.758 25.4731 32.092 25.4357C31.2632 25.4484 30.4633 25.7479 29.8239 26.2846C29.4958 24.4518 27.9586 23.0988 26.1298 23.0333C25.3491 23.0351 24.5894 23.2908 23.9617 23.7633V21.709C28.5019 19.421 30.3604 13.8193 28.113 9.19742C25.8656 4.57539 20.3631 2.68337 15.8231 4.9713C11.2829 7.25924 9.42441 12.8609 11.6718 17.4828C12.5634 19.3165 14.0219 20.8013 15.8231 21.709V30.682L13.9218 28.0758C12.6047 26.3052 10.1291 25.9522 8.38487 27.2863C6.75454 28.7074 6.53262 31.192 7.88455 32.8892L15.231 47.5924C17.5408 52.219 21.2266 52.8642 22.7359 52.9236C24.0368 52.983 25.371 53 26.6468 53C30.6661 53 34.1517 52.7878 34.1517 52.7878H34.2351C40.264 52.7878 41.9484 46.1917 41.9985 42.6772V31.429C42.0585 29.2029 40.3345 27.3486 38.1477 27.2875ZM15.7897 15.6549C15.7897 15.6553 15.7897 15.6558 15.7897 15.6561V19.7139C13.6623 18.3081 12.3762 15.9035 12.3708 13.3216C12.3502 9.10202 15.6934 5.66434 19.8382 5.64333C23.983 5.62232 27.3598 9.02583 27.3804 13.2454C27.3932 15.861 26.0908 18.3015 23.9284 19.714V15.6562C23.9287 13.3683 22.1071 11.5132 19.8597 11.5128C17.6121 11.5125 15.79 13.367 15.7897 15.6549ZM34.0183 51.0899C33.9599 51.0899 28.0727 51.4635 22.7609 51.2258C21.5768 51.1748 18.5915 50.64 16.707 46.8199L9.33549 32.0403C9.30975 31.9891 9.2791 31.9407 9.24377 31.8959C8.41385 30.9288 8.50703 29.4609 9.45223 28.6106C10.4655 27.8683 11.8765 28.0913 12.621 29.1115L15.9565 33.789L16.0065 33.8315C16.0799 33.9113 16.1641 33.9799 16.2567 34.0352L16.3984 34.0862H16.5652H16.6236H16.7153H16.8821L17.0322 34.0182H17.1156L17.1573 33.9758C17.2008 33.938 17.24 33.8953 17.274 33.8485C17.3058 33.8089 17.3337 33.7662 17.3574 33.7211C17.3783 33.6746 17.395 33.6264 17.4074 33.5768C17.413 33.5203 17.413 33.4635 17.4074 33.407C17.4074 33.407 17.4074 33.407 17.4074 33.3476V15.6562C17.4074 14.3059 18.4826 13.2113 19.809 13.2113C21.1354 13.2113 22.2106 14.3059 22.2106 15.6562V30.682C22.2106 31.1508 22.5839 31.5309 23.0444 31.5309C23.5049 31.5309 23.8783 31.1508 23.8783 30.682V27.176C23.7496 25.9594 24.6141 24.8668 25.8093 24.7359C27.0043 24.6048 28.0775 25.4849 28.2061 26.7016C28.2228 26.8593 28.2228 27.0184 28.2061 27.1761V33.2798C28.2061 33.7486 28.5795 34.1287 29.04 34.1287C29.5005 34.1287 29.8739 33.7486 29.8739 33.2798V29.5785C29.7452 28.3619 30.6097 27.2694 31.8048 27.1384C32.9999 27.0074 34.0731 27.8875 34.2017 29.1042C34.2184 29.2619 34.2184 29.4209 34.2017 29.5786V36.3699C34.2017 36.8388 34.5751 37.2189 35.0356 37.2189C35.4961 37.2189 35.8695 36.8388 35.8695 36.3699V31.4293C35.7407 30.2127 36.6053 29.1201 37.8004 28.9892C38.9955 28.8581 40.0687 29.7382 40.1973 30.9549C40.214 31.1126 40.214 31.2717 40.1973 31.4294L40.2473 42.6605C40.2473 43.0083 40.0472 51.1494 34.0183 51.0899Z" fill="white"/>
</g>
<defs>
<clipPath id="clip0">
<rect width="49" height="49" fill="white" transform="translate(0 4)"/>
</clipPath>
</defs>
</svg>
