<svg width="40" height="51" viewBox="0 0 40 51" fill="none" xmlns="http://www.w3.org/2000/svg">
<circle cx="20" cy="20" r="20" fill="white"/>
<path d="M20.3333 11C12.9812 11 7 16.9787 7 24.3269V37.6739C7 45.0219 12.9812 51 20.3333 51C27.6855 51 33.6667 45.0221 33.6667 37.6739V24.3269C33.6667 16.9787 27.6853 11 20.3333 11ZM32.1852 37.6739C32.1852 44.2052 26.8684 49.5185 20.3333 49.5185C13.7982 49.5185 8.48146 44.2052 8.48146 37.6739V24.3269C8.48146 17.7956 13.7982 12.4815 20.3333 12.4815C26.8684 12.4815 32.1852 17.7954 32.1852 24.3269V37.6739Z" fill="#111111"/>
<path d="M20.3331 15.4443C19.924 15.4443 19.5923 15.7757 19.5923 16.1852V22.8931C19.5923 23.3026 19.924 23.6339 20.3331 23.6339C20.7422 23.6339 21.0739 23.3026 21.0739 22.8931V16.1852C21.0738 15.7757 20.7422 15.4443 20.3331 15.4443Z" fill="#111111"/>
</svg>
