<svg width="27" height="43" viewBox="0 0 27 43" fill="none" xmlns="http://www.w3.org/2000/svg">
<circle opacity="0.35" cx="13" cy="12" r="12" fill="white"/>
<path d="M13.3333 3C5.98116 3 0 8.97869 0 16.3269V29.6739C0 37.0219 5.98116 43 13.3333 43C20.6855 43 26.6667 37.0221 26.6667 29.6739V16.3269C26.6667 8.97869 20.6853 3 13.3333 3ZM25.1852 29.6739C25.1852 36.2052 19.8684 41.5185 13.3333 41.5185C6.79822 41.5185 1.48146 36.2052 1.48146 29.6739V16.3269C1.48146 9.79555 6.79822 4.48146 13.3333 4.48146C19.8684 4.48146 25.1852 9.79536 25.1852 16.3269V29.6739Z" fill="white"/>
<path d="M13 7C12.4478 7 12 7.36414 12 7.81414V15.1859C12 15.6359 12.4478 16 13 16C13.5522 16 14 15.6359 14 15.1859V7.81414C13.9997 7.36414 13.5522 7 13 7Z" fill="white"/>
</svg>
