<svg width="40" height="51" viewBox="0 0 40 51" fill="none" xmlns="http://www.w3.org/2000/svg">
<circle cx="20" cy="20" r="20" fill="#F8F8F8"/>
<path d="M20.3333 11C12.9812 11 7 16.9787 7 24.3269V37.6739C7 45.0219 12.9812 51 20.3333 51C27.6855 51 33.6667 45.0221 33.6667 37.6739V24.3269C33.6667 16.9787 27.6853 11 20.3333 11ZM32.1852 37.6739C32.1852 44.2052 26.8684 49.5185 20.3333 49.5185C13.7982 49.5185 8.48146 44.2052 8.48146 37.6739V24.3269C8.48146 17.7956 13.7982 12.4815 20.3333 12.4815C26.8684 12.4815 32.1852 17.7954 32.1852 24.3269V37.6739Z" fill="#111111"/>
<path d="M20.3336 15.4453C19.9245 15.4453 19.5928 15.7767 19.5928 16.1861V22.8941C19.5928 23.3035 19.9245 23.6349 20.3336 23.6349C20.7427 23.6349 21.0744 23.3035 21.0744 22.8941V16.1861C21.0742 15.7767 20.7427 15.4453 20.3336 15.4453Z" fill="#111111"/>
</svg>
