<svg width="521" height="29" viewBox="0 0 521 29" fill="none" xmlns="http://www.w3.org/2000/svg">
<mask id="mask0" mask-type="alpha" maskUnits="userSpaceOnUse" x="0" y="0" width="521" height="29">
<rect width="521" height="29" fill="#C4C4C4"/>
</mask>
<g mask="url(#mask0)">
<circle cx="2" cy="6" r="1" fill="#A7A7A7"/>
<circle cx="2" cy="16.915" r="1" fill="#A7A7A7"/>
<circle cx="12.915" cy="6" r="1" fill="#A7A7A7"/>
<circle cx="12.915" cy="16.915" r="1" fill="#A7A7A7"/>
<circle cx="2" cy="27.8301" r="1" fill="#A7A7A7"/>
<circle cx="12.915" cy="27.8301" r="1" fill="#A7A7A7"/>
<circle cx="23.8301" cy="6" r="1" fill="#A7A7A7"/>
<circle cx="23.8301" cy="16.915" r="1" fill="#A7A7A7"/>
<circle cx="34.7451" cy="6" r="1" fill="#A7A7A7"/>
<circle cx="34.7451" cy="16.915" r="1" fill="#A7A7A7"/>
<circle cx="23.8301" cy="27.8301" r="1" fill="#A7A7A7"/>
<circle cx="34.7451" cy="27.8301" r="1" fill="#A7A7A7"/>
<circle cx="45.6616" cy="6" r="1" fill="#A7A7A7"/>
<circle cx="45.6616" cy="16.915" r="1" fill="#A7A7A7"/>
<circle cx="56.5767" cy="6" r="1" fill="#A7A7A7"/>
<circle cx="56.5767" cy="16.915" r="1" fill="#A7A7A7"/>
<circle cx="45.6616" cy="27.8301" r="1" fill="#A7A7A7"/>
<circle cx="56.5767" cy="27.8301" r="1" fill="#A7A7A7"/>
<circle cx="68" cy="6" r="1" fill="#A7A7A7"/>
<circle cx="68" cy="16.915" r="1" fill="#A7A7A7"/>
<circle cx="78.915" cy="6" r="1" fill="#A7A7A7"/>
<circle cx="78.915" cy="16.915" r="1" fill="#A7A7A7"/>
<circle cx="68" cy="27.8301" r="1" fill="#A7A7A7"/>
<circle cx="78.915" cy="27.8301" r="1" fill="#A7A7A7"/>
<circle cx="89.8301" cy="6" r="1" fill="#A7A7A7"/>
<circle cx="89.8301" cy="16.915" r="1" fill="#A7A7A7"/>
<circle cx="100.745" cy="6" r="1" fill="#A7A7A7"/>
<circle cx="100.745" cy="16.915" r="1" fill="#A7A7A7"/>
<circle cx="89.8301" cy="27.8301" r="1" fill="#A7A7A7"/>
<circle cx="100.745" cy="27.8301" r="1" fill="#A7A7A7"/>
<circle cx="111.662" cy="6" r="1" fill="#A7A7A7"/>
<circle cx="111.662" cy="16.915" r="1" fill="#A7A7A7"/>
<circle cx="122.577" cy="6" r="1" fill="#A7A7A7"/>
<circle cx="122.577" cy="16.915" r="1" fill="#A7A7A7"/>
<circle cx="111.662" cy="27.8301" r="1" fill="#A7A7A7"/>
<circle cx="122.577" cy="27.8301" r="1" fill="#A7A7A7"/>
<circle cx="134" cy="6" r="1" fill="#A7A7A7"/>
<circle cx="134" cy="16.915" r="1" fill="#A7A7A7"/>
<circle cx="144.915" cy="6" r="1" fill="#A7A7A7"/>
<circle cx="144.915" cy="16.915" r="1" fill="#A7A7A7"/>
<circle cx="134" cy="27.8301" r="1" fill="#A7A7A7"/>
<circle cx="144.915" cy="27.8301" r="1" fill="#A7A7A7"/>
<circle cx="155.83" cy="6" r="1" fill="#A7A7A7"/>
<circle cx="155.83" cy="16.915" r="1" fill="#A7A7A7"/>
<circle cx="166.745" cy="6" r="1" fill="#A7A7A7"/>
<circle cx="166.745" cy="16.915" r="1" fill="#A7A7A7"/>
<circle cx="155.83" cy="27.8301" r="1" fill="#A7A7A7"/>
<circle cx="166.745" cy="27.8301" r="1" fill="#A7A7A7"/>
<circle cx="177.662" cy="6" r="1" fill="#A7A7A7"/>
<circle cx="177.662" cy="16.915" r="1" fill="#A7A7A7"/>
<circle cx="188.577" cy="6" r="1" fill="#A7A7A7"/>
<circle cx="188.577" cy="16.915" r="1" fill="#A7A7A7"/>
<circle cx="177.662" cy="27.8301" r="1" fill="#A7A7A7"/>
<circle cx="188.577" cy="27.8301" r="1" fill="#A7A7A7"/>
<circle cx="200" cy="6" r="1" fill="#A7A7A7"/>
<circle cx="200" cy="16.915" r="1" fill="#A7A7A7"/>
<circle cx="210.915" cy="6" r="1" fill="#A7A7A7"/>
<circle cx="210.915" cy="16.915" r="1" fill="#A7A7A7"/>
<circle cx="200" cy="27.8301" r="1" fill="#A7A7A7"/>
<circle cx="210.915" cy="27.8301" r="1" fill="#A7A7A7"/>
<circle cx="221.83" cy="6" r="1" fill="#A7A7A7"/>
<circle cx="221.83" cy="16.915" r="1" fill="#A7A7A7"/>
<circle cx="232.745" cy="6" r="1" fill="#A7A7A7"/>
<circle cx="232.745" cy="16.915" r="1" fill="#A7A7A7"/>
<circle cx="221.83" cy="27.8301" r="1" fill="#A7A7A7"/>
<circle cx="232.745" cy="27.8301" r="1" fill="#A7A7A7"/>
<circle cx="243.662" cy="6" r="1" fill="#A7A7A7"/>
<circle cx="243.662" cy="16.915" r="1" fill="#A7A7A7"/>
<circle cx="254.577" cy="6" r="1" fill="#A7A7A7"/>
<circle cx="254.577" cy="16.915" r="1" fill="#A7A7A7"/>
<circle cx="243.662" cy="27.8301" r="1" fill="#A7A7A7"/>
<circle cx="254.577" cy="27.8301" r="1" fill="#A7A7A7"/>
<circle cx="266" cy="6" r="1" fill="#A7A7A7"/>
<circle cx="266" cy="16.915" r="1" fill="#A7A7A7"/>
<circle cx="276.915" cy="6" r="1" fill="#A7A7A7"/>
<circle cx="276.915" cy="16.915" r="1" fill="#A7A7A7"/>
<circle cx="266" cy="27.8301" r="1" fill="#A7A7A7"/>
<circle cx="276.915" cy="27.8301" r="1" fill="#A7A7A7"/>
<circle cx="287.83" cy="6" r="1" fill="#A7A7A7"/>
<circle cx="287.83" cy="16.915" r="1" fill="#A7A7A7"/>
<circle cx="298.745" cy="6" r="1" fill="#A7A7A7"/>
<circle cx="298.745" cy="16.915" r="1" fill="#A7A7A7"/>
<circle cx="287.83" cy="27.8301" r="1" fill="#A7A7A7"/>
<circle cx="298.745" cy="27.8301" r="1" fill="#A7A7A7"/>
<circle cx="309.662" cy="6" r="1" fill="#A7A7A7"/>
<circle cx="309.662" cy="16.915" r="1" fill="#A7A7A7"/>
<circle cx="320.577" cy="6" r="1" fill="#A7A7A7"/>
<circle cx="320.577" cy="16.915" r="1" fill="#A7A7A7"/>
<circle cx="309.662" cy="27.8301" r="1" fill="#A7A7A7"/>
<circle cx="320.577" cy="27.8301" r="1" fill="#A7A7A7"/>
<circle cx="332" cy="6" r="1" fill="#A7A7A7"/>
<circle cx="332" cy="16.915" r="1" fill="#A7A7A7"/>
<circle cx="342.915" cy="6" r="1" fill="#A7A7A7"/>
<circle cx="342.915" cy="16.915" r="1" fill="#A7A7A7"/>
<circle cx="332" cy="27.8301" r="1" fill="#A7A7A7"/>
<circle cx="342.915" cy="27.8301" r="1" fill="#A7A7A7"/>
<circle cx="353.83" cy="6" r="1" fill="#A7A7A7"/>
<circle cx="353.83" cy="16.915" r="1" fill="#A7A7A7"/>
<circle cx="364.745" cy="6" r="1" fill="#A7A7A7"/>
<circle cx="364.745" cy="16.915" r="1" fill="#A7A7A7"/>
<circle cx="353.83" cy="27.8301" r="1" fill="#A7A7A7"/>
<circle cx="364.745" cy="27.8301" r="1" fill="#A7A7A7"/>
<circle cx="375.662" cy="6" r="1" fill="#A7A7A7"/>
<circle cx="375.662" cy="16.915" r="1" fill="#A7A7A7"/>
<circle cx="386.577" cy="6" r="1" fill="#A7A7A7"/>
<circle cx="386.577" cy="16.915" r="1" fill="#A7A7A7"/>
<circle cx="375.662" cy="27.8301" r="1" fill="#A7A7A7"/>
<circle cx="386.577" cy="27.8301" r="1" fill="#A7A7A7"/>
<circle cx="397" cy="6" r="1" fill="#A7A7A7"/>
<circle cx="397" cy="16.915" r="1" fill="#A7A7A7"/>
<circle cx="407.915" cy="6" r="1" fill="#A7A7A7"/>
<circle cx="407.915" cy="16.915" r="1" fill="#A7A7A7"/>
<circle cx="397" cy="27.8301" r="1" fill="#A7A7A7"/>
<circle cx="407.915" cy="27.8301" r="1" fill="#A7A7A7"/>
<circle cx="418.83" cy="6" r="1" fill="#A7A7A7"/>
<circle cx="418.83" cy="16.915" r="1" fill="#A7A7A7"/>
<circle cx="429.745" cy="6" r="1" fill="#A7A7A7"/>
<circle cx="429.745" cy="16.915" r="1" fill="#A7A7A7"/>
<circle cx="418.83" cy="27.8301" r="1" fill="#A7A7A7"/>
<circle cx="429.745" cy="27.8301" r="1" fill="#A7A7A7"/>
<circle cx="440.662" cy="6" r="1" fill="#A7A7A7"/>
<circle cx="440.662" cy="16.915" r="1" fill="#A7A7A7"/>
<circle cx="451.577" cy="6" r="1" fill="#A7A7A7"/>
<circle cx="451.577" cy="16.915" r="1" fill="#A7A7A7"/>
<circle cx="440.662" cy="27.8301" r="1" fill="#A7A7A7"/>
<circle cx="451.577" cy="27.8301" r="1" fill="#A7A7A7"/>
<circle cx="463" cy="6" r="1" fill="#A7A7A7"/>
<circle cx="463" cy="16.915" r="1" fill="#A7A7A7"/>
<circle cx="473.915" cy="6" r="1" fill="#A7A7A7"/>
<circle cx="473.915" cy="16.915" r="1" fill="#A7A7A7"/>
<circle cx="463" cy="27.8301" r="1" fill="#A7A7A7"/>
<circle cx="473.915" cy="27.8301" r="1" fill="#A7A7A7"/>
<circle cx="484.83" cy="6" r="1" fill="#A7A7A7"/>
<circle cx="484.83" cy="16.915" r="1" fill="#A7A7A7"/>
<circle cx="495.745" cy="6" r="1" fill="#A7A7A7"/>
<circle cx="495.745" cy="16.915" r="1" fill="#A7A7A7"/>
<circle cx="484.83" cy="27.8301" r="1" fill="#A7A7A7"/>
<circle cx="495.745" cy="27.8301" r="1" fill="#A7A7A7"/>
<circle cx="506.662" cy="6" r="1" fill="#A7A7A7"/>
<circle cx="506.662" cy="16.915" r="1" fill="#A7A7A7"/>
<circle cx="517.577" cy="6" r="1" fill="#A7A7A7"/>
<circle cx="517.577" cy="16.915" r="1" fill="#A7A7A7"/>
<circle cx="506.662" cy="27.8301" r="1" fill="#A7A7A7"/>
<circle cx="517.577" cy="27.8301" r="1" fill="#A7A7A7"/>
</g>
</svg>
