<svg width="322" height="29" viewBox="0 0 322 29" fill="none" xmlns="http://www.w3.org/2000/svg">
<mask id="mask0" mask-type="alpha" maskUnits="userSpaceOnUse" x="0" y="0" width="322" height="29">
<rect width="322" height="29" fill="#C4C4C4"/>
</mask>
<g mask="url(#mask0)">
<circle cx="2" cy="6" r="1" fill="#E5E5E5"/>
<circle cx="2" cy="16.915" r="1" fill="#E5E5E5"/>
<circle cx="12.915" cy="6" r="1" fill="#E5E5E5"/>
<circle cx="12.915" cy="16.915" r="1" fill="#E5E5E5"/>
<circle cx="2" cy="27.8306" r="1" fill="#E5E5E5"/>
<circle cx="12.915" cy="27.8306" r="1" fill="#E5E5E5"/>
<circle cx="23.8301" cy="6" r="1" fill="#E5E5E5"/>
<circle cx="23.8301" cy="16.915" r="1" fill="#E5E5E5"/>
<circle cx="34.7451" cy="6" r="1" fill="#E5E5E5"/>
<circle cx="34.7451" cy="16.915" r="1" fill="#E5E5E5"/>
<circle cx="23.8301" cy="27.8306" r="1" fill="#E5E5E5"/>
<circle cx="34.7451" cy="27.8306" r="1" fill="#E5E5E5"/>
<circle cx="45.6616" cy="6" r="1" fill="#E5E5E5"/>
<circle cx="45.6616" cy="16.915" r="1" fill="#E5E5E5"/>
<circle cx="56.5767" cy="6" r="1" fill="#E5E5E5"/>
<circle cx="56.5767" cy="16.915" r="1" fill="#E5E5E5"/>
<circle cx="45.6616" cy="27.8306" r="1" fill="#E5E5E5"/>
<circle cx="56.5767" cy="27.8306" r="1" fill="#E5E5E5"/>
<circle cx="68" cy="6" r="1" fill="#E5E5E5"/>
<circle cx="68" cy="16.915" r="1" fill="#E5E5E5"/>
<circle cx="78.915" cy="6" r="1" fill="#E5E5E5"/>
<circle cx="78.915" cy="16.915" r="1" fill="#E5E5E5"/>
<circle cx="68" cy="27.8306" r="1" fill="#E5E5E5"/>
<circle cx="78.915" cy="27.8306" r="1" fill="#E5E5E5"/>
<circle cx="89.8301" cy="6" r="1" fill="#E5E5E5"/>
<circle cx="89.8301" cy="16.915" r="1" fill="#E5E5E5"/>
<circle cx="100.745" cy="6" r="1" fill="#E5E5E5"/>
<circle cx="100.745" cy="16.915" r="1" fill="#E5E5E5"/>
<circle cx="89.8301" cy="27.8306" r="1" fill="#E5E5E5"/>
<circle cx="100.745" cy="27.8306" r="1" fill="#E5E5E5"/>
<circle cx="111.662" cy="6" r="1" fill="#E5E5E5"/>
<circle cx="111.662" cy="16.915" r="1" fill="#E5E5E5"/>
<circle cx="122.577" cy="6" r="1" fill="#E5E5E5"/>
<circle cx="122.577" cy="16.915" r="1" fill="#E5E5E5"/>
<circle cx="111.662" cy="27.8306" r="1" fill="#E5E5E5"/>
<circle cx="122.577" cy="27.8306" r="1" fill="#E5E5E5"/>
<circle cx="134" cy="6" r="1" fill="#E5E5E5"/>
<circle cx="134" cy="16.915" r="1" fill="#E5E5E5"/>
<circle cx="144.915" cy="6" r="1" fill="#E5E5E5"/>
<circle cx="144.915" cy="16.915" r="1" fill="#E5E5E5"/>
<circle cx="134" cy="27.8306" r="1" fill="#E5E5E5"/>
<circle cx="144.915" cy="27.8306" r="1" fill="#E5E5E5"/>
<circle cx="155.83" cy="6" r="1" fill="#E5E5E5"/>
<circle cx="155.83" cy="16.915" r="1" fill="#E5E5E5"/>
<circle cx="166.745" cy="6" r="1" fill="#E5E5E5"/>
<circle cx="166.745" cy="16.915" r="1" fill="#E5E5E5"/>
<circle cx="155.83" cy="27.8306" r="1" fill="#E5E5E5"/>
<circle cx="166.745" cy="27.8306" r="1" fill="#E5E5E5"/>
<circle cx="177.662" cy="6" r="1" fill="#E5E5E5"/>
<circle cx="177.662" cy="16.915" r="1" fill="#E5E5E5"/>
<circle cx="188.577" cy="6" r="1" fill="#E5E5E5"/>
<circle cx="188.577" cy="16.915" r="1" fill="#E5E5E5"/>
<circle cx="177.662" cy="27.8306" r="1" fill="#E5E5E5"/>
<circle cx="188.577" cy="27.8306" r="1" fill="#E5E5E5"/>
<circle cx="200" cy="6" r="1" fill="#E5E5E5"/>
<circle cx="200" cy="16.915" r="1" fill="#E5E5E5"/>
<circle cx="210.915" cy="6" r="1" fill="#E5E5E5"/>
<circle cx="210.915" cy="16.915" r="1" fill="#E5E5E5"/>
<circle cx="200" cy="27.8306" r="1" fill="#E5E5E5"/>
<circle cx="210.915" cy="27.8306" r="1" fill="#E5E5E5"/>
<circle cx="221.83" cy="6" r="1" fill="#E5E5E5"/>
<circle cx="221.83" cy="16.915" r="1" fill="#E5E5E5"/>
<circle cx="232.745" cy="6" r="1" fill="#E5E5E5"/>
<circle cx="232.745" cy="16.915" r="1" fill="#E5E5E5"/>
<circle cx="221.83" cy="27.8306" r="1" fill="#E5E5E5"/>
<circle cx="232.745" cy="27.8306" r="1" fill="#E5E5E5"/>
<circle cx="243.662" cy="6" r="1" fill="#E5E5E5"/>
<circle cx="243.662" cy="16.915" r="1" fill="#E5E5E5"/>
<circle cx="254.577" cy="6" r="1" fill="#E5E5E5"/>
<circle cx="254.577" cy="16.915" r="1" fill="#E5E5E5"/>
<circle cx="243.662" cy="27.8306" r="1" fill="#E5E5E5"/>
<circle cx="254.577" cy="27.8306" r="1" fill="#E5E5E5"/>
<circle cx="266" cy="6" r="1" fill="#E5E5E5"/>
<circle cx="266" cy="16.915" r="1" fill="#E5E5E5"/>
<circle cx="276.915" cy="6" r="1" fill="#E5E5E5"/>
<circle cx="276.915" cy="16.915" r="1" fill="#E5E5E5"/>
<circle cx="266" cy="27.8306" r="1" fill="#E5E5E5"/>
<circle cx="276.915" cy="27.8306" r="1" fill="#E5E5E5"/>
<circle cx="287.83" cy="6" r="1" fill="#E5E5E5"/>
<circle cx="287.83" cy="16.915" r="1" fill="#E5E5E5"/>
<circle cx="298.745" cy="6" r="1" fill="#E5E5E5"/>
<circle cx="298.745" cy="16.915" r="1" fill="#E5E5E5"/>
<circle cx="287.83" cy="27.8306" r="1" fill="#E5E5E5"/>
<circle cx="298.745" cy="27.8306" r="1" fill="#E5E5E5"/>
<circle cx="309.662" cy="6" r="1" fill="#E5E5E5"/>
<circle cx="309.662" cy="16.915" r="1" fill="#E5E5E5"/>
<circle cx="320.577" cy="6" r="1" fill="#E5E5E5"/>
<circle cx="320.577" cy="16.915" r="1" fill="#E5E5E5"/>
<circle cx="309.662" cy="27.8306" r="1" fill="#E5E5E5"/>
<circle cx="320.577" cy="27.8306" r="1" fill="#E5E5E5"/>
</g>
</svg>
