<svg width="162" height="165" viewBox="0 0 162 165" fill="none" xmlns="http://www.w3.org/2000/svg">
<path d="M125.022 164.474H2.53023C1.13354 164.474 0 163.341 0 161.944V39.2075C0 37.8108 1.13354 36.6772 2.53023 36.6772H125.024C126.42 36.6772 127.554 37.8108 127.554 39.2075V161.944C127.552 163.341 126.42 164.474 125.022 164.474ZM5.06046 159.414H122.494V41.7377H5.06046V159.414Z" fill="black"/>
<path d="M159.431 127.797H36.9375C35.5408 127.797 34.4072 126.665 34.4072 125.267V83.0988C34.4072 81.7022 35.5408 80.5686 36.9375 80.5686H68.1524C69.5491 80.5686 70.6826 81.7022 70.6826 83.0988C70.6826 84.4955 69.5491 85.6291 68.1524 85.6291H39.4677V122.736H156.903V5.06046H39.4677V39.2064C39.4677 40.6051 38.3341 41.7367 36.9375 41.7367C35.5408 41.7367 34.4072 40.6051 34.4072 39.2064V2.53023C34.4072 1.13354 35.5408 0 36.9375 0H159.433C160.83 0 161.963 1.13354 161.963 2.53023V125.269C161.961 126.665 160.83 127.797 159.431 127.797Z" fill="black"/>
<path d="M82.9145 90.382C78.9046 90.382 75.6416 87.115 75.6416 83.099C75.6416 79.083 78.9026 75.814 82.9145 75.814C86.9244 75.814 90.1894 79.081 90.1894 83.099C90.1894 87.115 86.9264 90.382 82.9145 90.382ZM82.9145 80.8764C81.6939 80.8764 80.7021 81.8744 80.7021 83.101C80.7021 84.3277 81.6939 85.3236 82.9145 85.3236C84.1371 85.3236 85.1289 84.3277 85.1289 83.101C85.1289 81.8744 84.1371 80.8764 82.9145 80.8764Z" fill="black"/>
</svg>
