<svg width="42" height="35" viewBox="0 0 42 35" fill="none" xmlns="http://www.w3.org/2000/svg">
<path d="M12.1538 20.5221C13.4872 21.0843 14.5128 21.9746 15.2308 23.1928C16.0513 24.3173 16.4615 25.5823 16.4615 26.988C16.4615 29.2369 15.5897 31.158 13.8462 32.751C12.2051 34.2503 10.2051 35 7.84616 35C5.58975 35 3.69231 34.344 2.15385 33.0321C0.717949 31.6265 0 29.8929 0 27.8313C0 26.6131 0.205128 25.4886 0.615385 24.4578C1.02564 23.427 1.74359 22.0683 2.76923 20.3815L14.6154 0H22L12.1538 20.5221Z" fill="#4D4D4D"/>
<path d="M32.1538 20.5221C33.4872 21.0843 34.5128 21.9746 35.2308 23.1928C36.0513 24.3173 36.4615 25.5823 36.4615 26.988C36.4615 29.2369 35.5897 31.158 33.8462 32.751C32.2051 34.2503 30.2051 35 27.8462 35C25.5897 35 23.6923 34.344 22.1538 33.0321C20.7179 31.6265 20 29.8929 20 27.8313C20 26.6131 20.2051 25.4886 20.6154 24.4578C21.0256 23.427 21.7436 22.0683 22.7692 20.3815L34.6154 0H42L32.1538 20.5221Z" fill="#4D4D4D"/>
</svg>
